<svg width="322" height="82" viewBox="0 0 322 82" fill="none" xmlns="http://www.w3.org/2000/svg">
<g filter="url(#filter0_d_3007_11314)">
<g clip-path="url(#clip0_3007_11314)">
<rect x="4.5" y="2" width="313" height="74" rx="6.72761" fill="white"/>
<rect x="5" y="2.5" width="82" height="73" fill="#F3F3F3"/>
<rect x="5" y="2.5" width="82" height="73" stroke="#BDBDBD"/>
<path d="M37.651 34.214V36.132H33.115V38.246H37.427V40.164H33.115V44H30.931V34.214H37.651ZM41.5932 44H39.4932V36.468H41.5932V44ZM39.6612 35.516C39.4279 35.2733 39.3112 34.9793 39.3112 34.634C39.3112 34.2887 39.4279 33.9993 39.6612 33.766C39.9039 33.5233 40.1979 33.402 40.5432 33.402C40.8886 33.402 41.1779 33.5233 41.4112 33.766C41.6539 33.9993 41.7752 34.2887 41.7752 34.634C41.7752 34.9793 41.6539 35.2733 41.4112 35.516C41.1779 35.7493 40.8886 35.866 40.5432 35.866C40.1979 35.866 39.9039 35.7493 39.6612 35.516ZM47.7431 38.316C47.1178 38.316 46.6511 38.54 46.3431 38.988C46.0351 39.4267 45.8811 40.01 45.8811 40.738V44H43.7811V36.468H45.8811V37.462C46.1518 37.154 46.4878 36.8927 46.8891 36.678C47.2998 36.4633 47.7151 36.3513 48.1351 36.342L48.1491 38.316H47.7431ZM55.3523 41.662C55.3523 42.3993 55.0769 42.992 54.5263 43.44C53.9849 43.888 53.2943 44.112 52.4543 44.112C51.8943 44.112 51.3109 44.014 50.7043 43.818C50.0976 43.6127 49.5516 43.314 49.0663 42.922L49.9903 41.606C50.7743 42.2127 51.6096 42.516 52.4963 42.516C52.7669 42.516 52.9816 42.4647 53.1403 42.362C53.2989 42.25 53.3783 42.1053 53.3783 41.928C53.3783 41.7507 53.2663 41.5873 53.0423 41.438C52.8276 41.2887 52.5103 41.1487 52.0903 41.018C51.6796 40.8873 51.3623 40.7753 51.1383 40.682C50.9236 40.5887 50.6763 40.4533 50.3963 40.276C49.8269 39.9213 49.5423 39.3987 49.5423 38.708C49.5423 38.008 49.8223 37.4387 50.3823 37C50.9423 36.5613 51.6656 36.342 52.5523 36.342C53.4389 36.342 54.3256 36.6407 55.2123 37.238L54.4283 38.638C53.7749 38.19 53.1216 37.966 52.4683 37.966C51.8243 37.966 51.5023 38.1433 51.5023 38.498C51.5023 38.694 51.6049 38.848 51.8103 38.96C52.0156 39.072 52.3563 39.2027 52.8323 39.352C53.3083 39.5013 53.6443 39.618 53.8403 39.702C54.0456 39.7767 54.2883 39.898 54.5683 40.066C55.0909 40.3833 55.3523 40.9153 55.3523 41.662ZM59.607 37.98V41.354C59.607 41.6433 59.6817 41.872 59.831 42.04C59.9804 42.1987 60.1577 42.278 60.363 42.278C60.755 42.278 61.0864 42.1007 61.357 41.746L62.141 43.216C61.4877 43.8133 60.797 44.112 60.069 44.112C59.3504 44.112 58.739 43.874 58.235 43.398C57.7404 42.922 57.493 42.2733 57.493 41.452V37.98H56.611V36.468H57.493V34.214H59.607V36.468H61.427V37.98H59.607Z" fill="#BDBDBD"/>
<rect x="88" y="2.5" width="45" height="73" fill="white"/>
<rect x="88" y="2.5" width="45" height="73" stroke="#E9E9E9"/>
<path d="M108.111 34.214H112.073V44H109.973V36.076H108.111V34.214Z" fill="#23A6F0"/>
<rect x="134" y="2.5" width="48" height="73" fill="#23A6F0"/>
<rect x="134" y="2.5" width="48" height="73" stroke="#E9E9E9"/>
<path d="M157.444 39.436C158.022 38.848 158.433 38.3813 158.676 38.036C158.928 37.6813 159.054 37.3407 159.054 37.014C159.054 36.6873 158.946 36.4167 158.732 36.202C158.517 35.978 158.242 35.866 157.906 35.866C157.29 35.866 156.706 36.3047 156.156 37.182L154.406 36.146C154.863 35.4367 155.362 34.9 155.904 34.536C156.454 34.172 157.15 33.99 157.99 33.99C158.839 33.99 159.581 34.2607 160.216 34.802C160.86 35.334 161.182 36.062 161.182 36.986C161.182 37.49 161.051 37.9753 160.79 38.442C160.538 38.8993 160.066 39.4873 159.376 40.206L157.612 42.04H161.476V44H154.574V42.376L157.444 39.436Z" fill="white"/>
<rect x="183" y="2.5" width="48" height="73" fill="white"/>
<rect x="183" y="2.5" width="48" height="73" stroke="#E9E9E9"/>
<path d="M203.914 36.076V34.214H209.906V35.726L207.904 38.008C208.688 38.1387 209.295 38.47 209.724 39.002C210.154 39.5247 210.368 40.1313 210.368 40.822C210.368 41.8487 210.018 42.656 209.318 43.244C208.628 43.8227 207.741 44.112 206.658 44.112C205.576 44.112 204.479 43.7293 203.368 42.964L204.264 41.228C205.188 41.8813 206.014 42.208 206.742 42.208C207.181 42.208 207.54 42.1007 207.82 41.886C208.11 41.6713 208.254 41.3633 208.254 40.962C208.254 40.5513 208.091 40.2293 207.764 39.996C207.438 39.7533 206.985 39.632 206.406 39.632C206.098 39.632 205.664 39.7207 205.104 39.898V38.288L206.98 36.076H203.914Z" fill="#23A6F0"/>
<rect x="232" y="2.5" width="84" height="73" fill="white"/>
<rect x="232" y="2.5" width="84" height="73" stroke="#E8E8E8"/>
<path d="M264.626 34.214H266.81V44H264.626L259.964 37.868V44H257.78V34.214H259.824L264.626 40.514V34.214ZM275.737 42.908C274.888 43.7107 273.889 44.112 272.741 44.112C271.603 44.112 270.66 43.762 269.913 43.062C269.167 42.3527 268.793 41.4053 268.793 40.22C268.793 39.0347 269.171 38.092 269.927 37.392C270.693 36.692 271.593 36.342 272.629 36.342C273.665 36.342 274.543 36.6547 275.261 37.28C275.989 37.9053 276.353 38.764 276.353 39.856V40.976H270.865C270.931 41.3867 271.145 41.7227 271.509 41.984C271.873 42.2453 272.284 42.376 272.741 42.376C273.479 42.376 274.085 42.1287 274.561 41.634L275.737 42.908ZM274.225 39.478C274.179 39.03 274.011 38.6847 273.721 38.442C273.432 38.1993 273.077 38.078 272.657 38.078C272.247 38.078 271.869 38.204 271.523 38.456C271.178 38.708 270.977 39.0487 270.921 39.478H274.225ZM279.697 36.468L280.985 38.484L282.315 36.468H284.779L282.189 40.15L284.877 44H282.371L280.901 41.928L279.473 44H277.051L279.683 40.164L277.191 36.468H279.697ZM288.758 37.98V41.354C288.758 41.6433 288.833 41.872 288.982 42.04C289.131 42.1987 289.309 42.278 289.514 42.278C289.906 42.278 290.237 42.1007 290.508 41.746L291.292 43.216C290.639 43.8133 289.948 44.112 289.22 44.112C288.501 44.112 287.89 43.874 287.386 43.398C286.891 42.922 286.644 42.2733 286.644 41.452V37.98H285.762V36.468H286.644V34.214H288.758V36.468H290.578V37.98H288.758Z" fill="#23A6F0"/>
</g>
<rect x="5.17276" y="2.67276" width="311.654" height="72.6545" rx="6.05484" stroke="#BDBDBD" stroke-width="1.34552"/>
</g>
<defs>
<filter id="filter0_d_3007_11314" x="0.5" y="0" width="321" height="82" filterUnits="userSpaceOnUse" color-interpolation-filters="sRGB">
<feFlood flood-opacity="0" result="BackgroundImageFix"/>
<feColorMatrix in="SourceAlpha" type="matrix" values="0 0 0 0 0 0 0 0 0 0 0 0 0 0 0 0 0 0 127 0" result="hardAlpha"/>
<feOffset dy="2"/>
<feGaussianBlur stdDeviation="2"/>
<feColorMatrix type="matrix" values="0 0 0 0 0 0 0 0 0 0 0 0 0 0 0 0 0 0 0.1 0"/>
<feBlend mode="normal" in2="BackgroundImageFix" result="effect1_dropShadow_3007_11314"/>
<feBlend mode="normal" in="SourceGraphic" in2="effect1_dropShadow_3007_11314" result="shape"/>
</filter>
<clipPath id="clip0_3007_11314">
<rect x="4.5" y="2" width="313" height="74" rx="6.72761" fill="white"/>
</clipPath>
</defs>
</svg>
